# Blender 3.6.1
# www.blender.org
mtllib square.mtl
o Cube
v 0.010000 0.450000 -0.500000
v 0.010000 0.500000 -0.450000
v 0.010000 0.453923 -0.499846
v 0.010000 0.457822 -0.499384
v 0.010000 0.461672 -0.498618
v 0.010000 0.465451 -0.497553
v 0.010000 0.469134 -0.496194
v 0.010000 0.472700 -0.494550
v 0.010000 0.476125 -0.492632
v 0.010000 0.479389 -0.490451
v 0.010000 0.482472 -0.488020
v 0.010000 0.485355 -0.485355
v 0.010000 0.488020 -0.482472
v 0.010000 0.490451 -0.479389
v 0.010000 0.492632 -0.476125
v 0.010000 0.494550 -0.472700
v 0.010000 0.496194 -0.469134
v 0.010000 0.497553 -0.465451
v 0.010000 0.498618 -0.461672
v 0.010000 0.499384 -0.457822
v 0.010000 0.499846 -0.453923
v -0.010000 0.500000 -0.450000
v -0.010000 0.450000 -0.500000
v -0.010000 0.499846 -0.453923
v -0.010000 0.499384 -0.457822
v -0.010000 0.498618 -0.461672
v -0.010000 0.497553 -0.465451
v -0.010000 0.496194 -0.469134
v -0.010000 0.494550 -0.472700
v -0.010000 0.492632 -0.476125
v -0.010000 0.490451 -0.479389
v -0.010000 0.488020 -0.482472
v -0.010000 0.485355 -0.485355
v -0.010000 0.482472 -0.488020
v -0.010000 0.479389 -0.490451
v -0.010000 0.476125 -0.492632
v -0.010000 0.472700 -0.494550
v -0.010000 0.469134 -0.496194
v -0.010000 0.465451 -0.497553
v -0.010000 0.461672 -0.498618
v -0.010000 0.457822 -0.499384
v -0.010000 0.453923 -0.499846
v 0.010000 0.500000 0.450000
v 0.010000 0.450000 0.500000
v 0.010000 0.499846 0.453923
v 0.010000 0.499384 0.457822
v 0.010000 0.498618 0.461672
v 0.010000 0.497553 0.465451
v 0.010000 0.496194 0.469134
v 0.010000 0.494550 0.472700
v 0.010000 0.492632 0.476125
v 0.010000 0.490451 0.479389
v 0.010000 0.488020 0.482472
v 0.010000 0.485355 0.485355
v 0.010000 0.482472 0.488020
v 0.010000 0.479389 0.490451
v 0.010000 0.476125 0.492632
v 0.010000 0.472700 0.494550
v 0.010000 0.469134 0.496194
v 0.010000 0.465451 0.497553
v 0.010000 0.461672 0.498618
v 0.010000 0.457822 0.499384
v 0.010000 0.453923 0.499846
v -0.010000 0.450000 0.500000
v -0.010000 0.500000 0.450000
v -0.010000 0.453923 0.499846
v -0.010000 0.457822 0.499384
v -0.010000 0.461672 0.498618
v -0.010000 0.465451 0.497553
v -0.010000 0.469134 0.496194
v -0.010000 0.472700 0.494550
v -0.010000 0.476125 0.492632
v -0.010000 0.479389 0.490451
v -0.010000 0.482472 0.488020
v -0.010000 0.485355 0.485355
v -0.010000 0.488020 0.482472
v -0.010000 0.490451 0.479389
v -0.010000 0.492632 0.476125
v -0.010000 0.494550 0.472700
v -0.010000 0.496194 0.469134
v -0.010000 0.497553 0.465451
v -0.010000 0.498618 0.461672
v -0.010000 0.499384 0.457822
v -0.010000 0.499846 0.453923
v 0.010000 -0.450000 0.500000
v 0.010000 -0.500000 0.450000
v 0.010000 -0.453923 0.499846
v 0.010000 -0.457822 0.499384
v 0.010000 -0.461672 0.498618
v 0.010000 -0.465451 0.497553
v 0.010000 -0.469134 0.496194
v 0.010000 -0.472700 0.494550
v 0.010000 -0.476125 0.492632
v 0.010000 -0.479389 0.490451
v 0.010000 -0.482472 0.488020
v 0.010000 -0.485355 0.485355
v 0.010000 -0.488020 0.482472
v 0.010000 -0.490451 0.479389
v 0.010000 -0.492632 0.476125
v 0.010000 -0.494550 0.472700
v 0.010000 -0.496194 0.469134
v 0.010000 -0.497553 0.465451
v 0.010000 -0.498618 0.461672
v 0.010000 -0.499384 0.457822
v 0.010000 -0.499846 0.453923
v -0.010000 -0.500000 0.450000
v -0.010000 -0.450000 0.500000
v -0.010000 -0.499846 0.453923
v -0.010000 -0.499384 0.457822
v -0.010000 -0.498618 0.461672
v -0.010000 -0.497553 0.465451
v -0.010000 -0.496194 0.469134
v -0.010000 -0.494550 0.472700
v -0.010000 -0.492632 0.476125
v -0.010000 -0.490451 0.479389
v -0.010000 -0.488020 0.482472
v -0.010000 -0.485355 0.485355
v -0.010000 -0.482472 0.488020
v -0.010000 -0.479389 0.490451
v -0.010000 -0.476125 0.492632
v -0.010000 -0.472700 0.494550
v -0.010000 -0.469134 0.496194
v -0.010000 -0.465451 0.497553
v -0.010000 -0.461672 0.498618
v -0.010000 -0.457822 0.499384
v -0.010000 -0.453923 0.499846
v 0.010000 -0.500000 -0.450000
v 0.010000 -0.450000 -0.500000
v 0.010000 -0.499846 -0.453923
v 0.010000 -0.499384 -0.457822
v 0.010000 -0.498618 -0.461672
v 0.010000 -0.497553 -0.465451
v 0.010000 -0.496194 -0.469134
v 0.010000 -0.494550 -0.472700
v 0.010000 -0.492632 -0.476125
v 0.010000 -0.490451 -0.479389
v 0.010000 -0.488020 -0.482472
v 0.010000 -0.485355 -0.485355
v 0.010000 -0.482472 -0.488020
v 0.010000 -0.479389 -0.490451
v 0.010000 -0.476125 -0.492632
v 0.010000 -0.472700 -0.494550
v 0.010000 -0.469134 -0.496194
v 0.010000 -0.465451 -0.497553
v 0.010000 -0.461672 -0.498618
v 0.010000 -0.457822 -0.499384
v 0.010000 -0.453923 -0.499846
v -0.010000 -0.450000 -0.500000
v -0.010000 -0.500000 -0.450000
v -0.010000 -0.453923 -0.499846
v -0.010000 -0.457822 -0.499384
v -0.010000 -0.461672 -0.498618
v -0.010000 -0.465451 -0.497553
v -0.010000 -0.469134 -0.496194
v -0.010000 -0.472700 -0.494550
v -0.010000 -0.476125 -0.492632
v -0.010000 -0.479389 -0.490451
v -0.010000 -0.482472 -0.488020
v -0.010000 -0.485355 -0.485355
v -0.010000 -0.488020 -0.482472
v -0.010000 -0.490451 -0.479389
v -0.010000 -0.492632 -0.476125
v -0.010000 -0.494550 -0.472700
v -0.010000 -0.496194 -0.469134
v -0.010000 -0.497553 -0.465451
v -0.010000 -0.498618 -0.461672
v -0.010000 -0.499384 -0.457822
v -0.010000 -0.499846 -0.453923
vn -0.0000 1.0000 -0.0000
vn -0.0000 -1.0000 -0.0000
vn -1.0000 -0.0000 -0.0000
vn -0.0000 0.9992 -0.0393
vn -0.0000 0.9931 -0.1175
vn -0.0000 0.9808 -0.1951
vn -0.0000 0.9625 -0.2714
vn -0.0000 0.9382 -0.3461
vn -0.0000 0.9081 -0.4187
vn -0.0000 0.8725 -0.4886
vn -0.0000 0.8315 -0.5556
vn -0.0000 0.7853 -0.6191
vn -0.0000 0.7343 -0.6788
vn -0.0000 0.6788 -0.7343
vn -0.0000 0.6191 -0.7853
vn -0.0000 0.5556 -0.8315
vn -0.0000 0.4886 -0.8725
vn -0.0000 0.4187 -0.9081
vn -0.0000 0.3461 -0.9382
vn -0.0000 0.2714 -0.9625
vn -0.0000 0.1951 -0.9808
vn -0.0000 0.1175 -0.9931
vn -0.0000 0.0393 -0.9992
vn 1.0000 -0.0000 -0.0000
vn -0.0000 0.9992 0.0393
vn -0.0000 0.9931 0.1175
vn -0.0000 0.9808 0.1951
vn -0.0000 0.9625 0.2714
vn -0.0000 0.9382 0.3461
vn -0.0000 0.9081 0.4187
vn -0.0000 0.8725 0.4886
vn -0.0000 0.8315 0.5556
vn -0.0000 0.7853 0.6191
vn -0.0000 0.7343 0.6788
vn -0.0000 0.6788 0.7343
vn -0.0000 0.6191 0.7853
vn -0.0000 0.5556 0.8315
vn -0.0000 0.4886 0.8725
vn -0.0000 0.4187 0.9081
vn -0.0000 0.3461 0.9382
vn -0.0000 0.2714 0.9625
vn -0.0000 0.1951 0.9808
vn -0.0000 0.1175 0.9931
vn -0.0000 0.0393 0.9992
vn -0.0000 -0.9992 0.0393
vn -0.0000 -0.9931 0.1175
vn -0.0000 -0.9808 0.1951
vn -0.0000 -0.9625 0.2714
vn -0.0000 -0.9382 0.3461
vn -0.0000 -0.9081 0.4187
vn -0.0000 -0.8725 0.4886
vn -0.0000 -0.8315 0.5556
vn -0.0000 -0.7853 0.6191
vn -0.0000 -0.7343 0.6788
vn -0.0000 -0.6788 0.7343
vn -0.0000 -0.6191 0.7853
vn -0.0000 -0.5556 0.8315
vn -0.0000 -0.4886 0.8725
vn -0.0000 -0.4187 0.9081
vn -0.0000 -0.3461 0.9382
vn -0.0000 -0.2714 0.9625
vn -0.0000 -0.1951 0.9808
vn -0.0000 -0.1175 0.9931
vn -0.0000 -0.0393 0.9992
vn -0.0000 -0.0000 1.0000
vn -0.0000 -0.9992 -0.0393
vn -0.0000 -0.9931 -0.1175
vn -0.0000 -0.9808 -0.1951
vn -0.0000 -0.9625 -0.2714
vn -0.0000 -0.9382 -0.3461
vn -0.0000 -0.9081 -0.4187
vn -0.0000 -0.8725 -0.4886
vn -0.0000 -0.8315 -0.5556
vn -0.0000 -0.7853 -0.6191
vn -0.0000 -0.7343 -0.6788
vn -0.0000 -0.6788 -0.7343
vn -0.0000 -0.6191 -0.7853
vn -0.0000 -0.5556 -0.8315
vn -0.0000 -0.4886 -0.8725
vn -0.0000 -0.4187 -0.9081
vn -0.0000 -0.3461 -0.9382
vn -0.0000 -0.2714 -0.9625
vn -0.0000 -0.1951 -0.9808
vn -0.0000 -0.1175 -0.9931
vn -0.0000 -0.0393 -0.9992
vn -0.0000 -0.0000 -1.0000
vt 0.879706 1.219095
vt 1.129707 1.219095
vt 1.129707 1.444095
vt 0.879706 1.444095
vt 0.464253 -0.082352
vt 0.463867 -0.082281
vt 0.465863 -0.081410
vt 0.461446 -0.082757
vt 0.947328 -0.001754
vt 0.951223 -0.001584
vt 0.955093 -0.001106
vt 0.958915 -0.000322
vt 0.962666 0.000762
vt 0.966321 0.002140
vt 0.969860 0.003803
vt 0.973260 0.005742
vt 0.976501 0.007943
vt 0.979563 0.010393
vt 0.982426 0.013078
vt 0.985075 0.015980
vt 0.987491 0.019082
vt 0.989662 0.022365
vt 0.991571 0.025808
vt 0.993208 0.029391
vt 0.994562 0.033091
vt 0.995624 0.036885
vt 0.996389 0.040750
vt 0.996851 0.044663
vt 0.997008 0.048599
vt 0.997722 0.951427
vt 0.997571 0.955362
vt 0.997114 0.959272
vt 0.996354 0.963132
vt 0.995295 0.966919
vt 0.993944 0.970609
vt 0.992308 0.974181
vt 0.990398 0.977611
vt 0.988225 0.980879
vt 0.985803 0.983965
vt 0.983145 0.986849
vt 0.980269 0.989515
vt 0.977192 0.991944
vt 0.973934 0.994124
vt 0.970514 0.996039
vt 0.966954 0.997678
vt 0.963276 0.999031
vt 0.959503 1.000090
vt 0.955659 1.000848
vt 0.951767 1.001300
vt 0.947851 1.001443
vt 0.049467 0.998910
vt 0.045551 0.998744
vt 0.041661 0.998270
vt 0.037820 0.997490
vt 0.034051 0.996409
vt 0.030379 0.995035
vt 0.026825 0.993375
vt 0.023413 0.991439
vt 0.020162 0.989240
vt 0.017095 0.986790
vt 0.014229 0.984106
vt 0.011582 0.981203
vt 0.009172 0.978100
vt 0.007011 0.974815
vt 0.005114 0.971370
vt 0.003492 0.967784
vt 0.002155 0.964081
vt 0.001110 0.960283
vt 0.000365 0.956413
vt -0.000077 0.952497
vt -0.000213 0.948557
vt 0.003939 0.044734
vt 0.004111 0.040795
vt 0.004588 0.036881
vt 0.005367 0.033017
vt 0.006444 0.029226
vt 0.007812 0.025532
vt 0.009463 0.021957
vt 0.011385 0.018525
vt 0.013567 0.015255
vt 0.015996 0.012168
vt 0.018656 0.009283
vt 0.021530 0.006618
vt 0.024600 0.004189
vt 0.027849 0.002012
vt 0.031257 0.000099
vt 0.034802 -0.001537
vt 0.038463 -0.002886
vt 0.042218 -0.003942
vt 0.046043 -0.004695
vt 0.049915 -0.005143
vt 0.053810 -0.005283
vt 0.879706 1.218115
vt 1.129707 1.218115
vt 0.879706 1.217140
vt 1.129707 1.217140
vt 0.879706 1.216177
vt 1.129707 1.216177
vt 0.879706 1.215233
vt 1.129707 1.215233
vt 0.879706 1.214312
vt 1.129707 1.214312
vt 0.879706 1.213421
vt 1.129707 1.213421
vt 0.879706 1.212564
vt 1.129707 1.212564
vt 0.879706 1.211748
vt 1.129707 1.211748
vt 0.879706 1.210977
vt 1.129707 1.210977
vt 0.879706 1.206595
vt 1.129707 1.206595
vt 0.829154 -0.389000
vt 0.829154 -0.139000
vt 0.824772 -0.139000
vt 0.824772 -0.389000
vt 0.824001 -0.139000
vt 0.824001 -0.389000
vt 0.823185 -0.139000
vt 0.823185 -0.389000
vt 0.822329 -0.139000
vt 0.822329 -0.389000
vt 0.821437 -0.139000
vt 0.821437 -0.389000
vt 0.820517 -0.139000
vt 0.820517 -0.389000
vt 0.819572 -0.139000
vt 0.819572 -0.389000
vt 0.818609 -0.139000
vt 0.818609 -0.389000
vt 0.817635 -0.139000
vt 0.817635 -0.389000
vt 0.816654 -0.139000
vt 0.816654 -0.389000
vt 0.949158 -0.001862
vt 0.953076 -0.001707
vt 0.956969 -0.001245
vt 0.960813 -0.000477
vt 0.964584 0.000592
vt 0.968259 0.001955
vt 0.971815 0.003603
vt 0.975230 0.005528
vt 0.978482 0.007716
vt 0.981553 0.010156
vt 0.984421 0.012831
vt 0.987071 0.015726
vt 0.989484 0.018823
vt 0.991647 0.022102
vt 0.993547 0.025543
vt 0.995171 0.029124
vt 0.996511 0.032824
vt 0.997558 0.036620
vt 0.998305 0.040487
vt 0.998749 0.044402
vt 0.998886 0.048342
vt 0.995046 0.952085
vt 0.994876 0.956024
vt 0.994400 0.959938
vt 0.993621 0.963802
vt 0.992545 0.967594
vt 0.991176 0.971289
vt 0.989525 0.974865
vt 0.987602 0.978299
vt 0.985418 0.981570
vt 0.982988 0.984659
vt 0.980326 0.987544
vt 0.977449 0.990210
vt 0.974375 0.992638
vt 0.971122 0.994816
vt 0.967711 0.996728
vt 0.964162 0.998364
vt 0.960496 0.999714
vt 0.956737 1.000770
vt 0.952907 1.001524
vt 0.949030 1.001973
vt 0.945130 1.002114
vt 0.050467 0.998887
vt 0.046568 0.998719
vt 0.042693 0.998243
vt 0.038866 0.997462
vt 0.035110 0.996381
vt 0.031450 0.995007
vt 0.027907 0.993348
vt 0.024503 0.991415
vt 0.021258 0.989220
vt 0.018193 0.986776
vt 0.015327 0.984099
vt 0.012676 0.981206
vt 0.010257 0.978113
vt 0.008085 0.974841
vt 0.006175 0.971409
vt 0.004537 0.967837
vt 0.003183 0.964148
vt 0.002120 0.960365
vt 0.001356 0.956511
vt 0.000895 0.952609
vt 0.000739 0.948684
vt 0.000298 0.048247
vt 0.000450 0.044322
vt 0.000908 0.040422
vt 0.001670 0.036570
vt 0.002731 0.032791
vt 0.004085 0.029107
vt 0.005723 0.025541
vt 0.007636 0.022115
vt 0.009811 0.018851
vt 0.012236 0.015767
vt 0.014896 0.012882
vt 0.017774 0.010216
vt 0.020854 0.007783
vt 0.024115 0.005599
vt 0.027537 0.003678
vt 0.031100 0.002032
vt 0.034780 0.000670
vt 0.038555 -0.000397
vt 0.042402 -0.001165
vt 0.046296 -0.001627
vt 0.050215 -0.001782
vt 1.129707 1.445076
vt 0.879706 1.445076
vt 1.129707 1.446051
vt 0.879706 1.446051
vt 1.129707 1.447013
vt 0.879706 1.447013
vt 1.129707 1.447958
vt 0.879706 1.447958
vt 1.129707 1.448879
vt 0.879706 1.448879
vt 1.129707 1.449770
vt 0.879706 1.449770
vt 1.129707 1.450627
vt 0.879706 1.450627
vt 1.129707 1.451443
vt 0.879706 1.451443
vt 1.129707 1.452214
vt 0.879706 1.452213
vt 1.129707 1.456595
vt 0.879706 1.456595
vt 0.165612 1.275421
vt 0.168513 1.272853
vt 0.168490 1.272853
vt 0.165445 1.275190
vt 0.168486 1.272853
vt 0.165415 1.275149
vt 0.168482 1.272853
vt 0.165384 1.275106
vt 0.168478 1.272853
vt 0.165351 1.275061
vt 0.168473 1.272853
vt 0.165317 1.275014
vt 0.168469 1.272853
vt 0.165282 1.274966
vt 0.168464 1.272853
vt 0.165246 1.274916
vt 0.168459 1.272853
vt 0.165209 1.274865
vt 0.168454 1.272853
vt 0.165172 1.274814
vt 0.168449 1.272853
vt 0.165135 1.274762
vt 0.465872 -0.081406
vt 0.461434 -0.082759
vt 0.465881 -0.081403
vt 0.461421 -0.082760
vt 0.465889 -0.081399
vt 0.461409 -0.082762
vt 0.465898 -0.081395
vt 0.461398 -0.082764
vt 0.465906 -0.081392
vt 0.461386 -0.082766
vt 0.465914 -0.081388
vt 0.461375 -0.082767
vt 0.465921 -0.081385
vt 0.461364 -0.082769
vt 0.465928 -0.081382
vt 0.461354 -0.082770
vt 0.465935 -0.081379
vt 0.461344 -0.082772
vt 0.465974 -0.081362
vt 0.461290 -0.082779
vt 0.167243 1.272853
vt 0.156064 1.262241
vt 0.156231 1.262472
vt 0.167265 1.272853
vt 0.156261 1.262513
vt 0.167269 1.272853
vt 0.156292 1.262556
vt 0.167273 1.272853
vt 0.156324 1.262601
vt 0.167277 1.272853
vt 0.156358 1.262648
vt 0.167282 1.272853
vt 0.156394 1.262696
vt 0.167286 1.272853
vt 0.156430 1.262746
vt 0.167291 1.272853
vt 0.156466 1.262797
vt 0.167296 1.272853
vt 0.156504 1.262848
vt 0.167301 1.272853
vt 0.156541 1.262900
vt 0.167306 1.272853
vt 0.464265 -0.082350
vt 0.463858 -0.082285
vt 0.464278 -0.082348
vt 0.463850 -0.082288
vt 0.464290 -0.082346
vt 0.463841 -0.082292
vt 0.464301 -0.082345
vt 0.463833 -0.082296
vt 0.464313 -0.082343
vt 0.463825 -0.082299
vt 0.464324 -0.082341
vt 0.463817 -0.082303
vt 0.464335 -0.082340
vt 0.463809 -0.082306
vt 0.464345 -0.082338
vt 0.463802 -0.082309
vt 0.464355 -0.082337
vt 0.463795 -0.082312
vt 0.464409 -0.082329
vt 0.463756 -0.082329
vt 0.579154 -0.139000
vt 0.579154 -0.389000
vt 0.583536 -0.389000
vt 0.583536 -0.139000
vt 0.584307 -0.389000
vt 0.584307 -0.139000
vt 0.585123 -0.389000
vt 0.585123 -0.139000
vt 0.585979 -0.389000
vt 0.585979 -0.139000
vt 0.586870 -0.389000
vt 0.586870 -0.139000
vt 0.587791 -0.389000
vt 0.587791 -0.139000
vt 0.588736 -0.389000
vt 0.588736 -0.139000
vt 0.589699 -0.389000
vt 0.589699 -0.139000
vt 0.590673 -0.389000
vt 0.590673 -0.139000
vt 0.591654 -0.389000
vt 0.591654 -0.139000
s 0
usemtl Material
f 2/1/1 22/2/1 65/3/1 43/4/1
f 149/5/2 127/6/2 86/7/2 106/8/2
f 106/9/3 108/10/3 109/11/3 110/12/3 111/13/3 112/14/3 113/15/3 114/16/3 115/17/3 116/18/3 117/19/3 118/20/3 119/21/3 120/22/3 121/23/3 122/24/3 123/25/3 124/26/3 125/27/3 126/28/3 107/29/3 64/30/3 66/31/3 67/32/3 68/33/3 69/34/3 70/35/3 71/36/3 72/37/3 73/38/3 74/39/3 75/40/3 76/41/3 77/42/3 78/43/3 79/44/3 80/45/3 81/46/3 82/47/3 83/48/3 84/49/3 65/50/3 22/51/3 24/52/3 25/53/3 26/54/3 27/55/3 28/56/3 29/57/3 30/58/3 31/59/3 32/60/3 33/61/3 34/62/3 35/63/3 36/64/3 37/65/3 38/66/3 39/67/3 40/68/3 41/69/3 42/70/3 23/71/3 148/72/3 150/73/3 151/74/3 152/75/3 153/76/3 154/77/3 155/78/3 156/79/3 157/80/3 158/81/3 159/82/3 160/83/3 161/84/3 162/85/3 163/86/3 164/87/3 165/88/3 166/89/3 167/90/3 168/91/3 149/92/3
f 22/2/4 2/1/4 21/93/4 24/94/4
f 24/94/5 21/93/5 20/95/5 25/96/5
f 25/96/6 20/95/6 19/97/6 26/98/6
f 26/98/7 19/97/7 18/99/7 27/100/7
f 27/100/8 18/99/8 17/101/8 28/102/8
f 28/102/9 17/101/9 16/103/9 29/104/9
f 29/104/10 16/103/10 15/105/10 30/106/10
f 30/106/11 15/105/11 14/107/11 31/108/11
f 31/108/12 14/107/12 13/109/12 32/110/12
f 32/110/13 13/109/13 12/111/13 33/112/13
f 33/113/14 12/114/14 11/115/14 34/116/14
f 34/116/15 11/115/15 10/117/15 35/118/15
f 35/118/16 10/117/16 9/119/16 36/120/16
f 36/120/17 9/119/17 8/121/17 37/122/17
f 37/122/18 8/121/18 7/123/18 38/124/18
f 38/124/19 7/123/19 6/125/19 39/126/19
f 39/126/20 6/125/20 5/127/20 40/128/20
f 40/128/21 5/127/21 4/129/21 41/130/21
f 41/130/22 4/129/22 3/131/22 42/132/22
f 42/132/23 3/131/23 1/133/23 23/134/23
f 127/135/24 129/136/24 130/137/24 131/138/24 132/139/24 133/140/24 134/141/24 135/142/24 136/143/24 137/144/24 138/145/24 139/146/24 140/147/24 141/148/24 142/149/24 143/150/24 144/151/24 145/152/24 146/153/24 147/154/24 128/155/24 1/156/24 3/157/24 4/158/24 5/159/24 6/160/24 7/161/24 8/162/24 9/163/24 10/164/24 11/165/24 12/166/24 13/167/24 14/168/24 15/169/24 16/170/24 17/171/24 18/172/24 19/173/24 20/174/24 21/175/24 2/176/24 43/177/24 45/178/24 46/179/24 47/180/24 48/181/24 49/182/24 50/183/24 51/184/24 52/185/24 53/186/24 54/187/24 55/188/24 56/189/24 57/190/24 58/191/24 59/192/24 60/193/24 61/194/24 62/195/24 63/196/24 44/197/24 85/198/24 87/199/24 88/200/24 89/201/24 90/202/24 91/203/24 92/204/24 93/205/24 94/206/24 95/207/24 96/208/24 97/209/24 98/210/24 99/211/24 100/212/24 101/213/24 102/214/24 103/215/24 104/216/24 105/217/24 86/218/24
f 43/4/25 65/3/25 84/219/25 45/220/25
f 45/220/26 84/219/26 83/221/26 46/222/26
f 46/222/27 83/221/27 82/223/27 47/224/27
f 47/224/28 82/223/28 81/225/28 48/226/28
f 48/226/29 81/225/29 80/227/29 49/228/29
f 49/228/30 80/227/30 79/229/30 50/230/30
f 50/230/31 79/229/31 78/231/31 51/232/31
f 51/232/32 78/231/32 77/233/32 52/234/32
f 52/234/33 77/233/33 76/235/33 53/236/33
f 53/236/34 76/235/34 75/237/34 54/238/34
f 54/239/35 75/240/35 74/241/35 55/242/35
f 55/242/36 74/241/36 73/243/36 56/244/36
f 56/244/37 73/243/37 72/245/37 57/246/37
f 57/246/38 72/245/38 71/247/38 58/248/38
f 58/248/39 71/247/39 70/249/39 59/250/39
f 59/250/40 70/249/40 69/251/40 60/252/40
f 60/252/41 69/251/41 68/253/41 61/254/41
f 61/254/42 68/253/42 67/255/42 62/256/42
f 62/256/43 67/255/43 66/257/43 63/258/43
f 63/258/44 66/257/44 64/259/44 44/260/44
f 106/8/45 86/7/45 105/261/45 108/262/45
f 108/262/46 105/261/46 104/263/46 109/264/46
f 109/264/47 104/263/47 103/265/47 110/266/47
f 110/266/48 103/265/48 102/267/48 111/268/48
f 111/268/49 102/267/49 101/269/49 112/270/49
f 112/270/50 101/269/50 100/271/50 113/272/50
f 113/272/51 100/271/51 99/273/51 114/274/51
f 114/274/52 99/273/52 98/275/52 115/276/52
f 115/276/53 98/275/53 97/277/53 116/278/53
f 116/278/54 97/277/54 96/279/54 117/280/54
f 117/281/55 96/282/55 95/283/55 118/284/55
f 118/284/56 95/283/56 94/285/56 119/286/56
f 119/286/57 94/285/57 93/287/57 120/288/57
f 120/288/58 93/287/58 92/289/58 121/290/58
f 121/290/59 92/289/59 91/291/59 122/292/59
f 122/292/60 91/291/60 90/293/60 123/294/60
f 123/294/61 90/293/61 89/295/61 124/296/61
f 124/296/62 89/295/62 88/297/62 125/298/62
f 125/298/63 88/297/63 87/299/63 126/300/63
f 126/300/64 87/299/64 85/301/64 107/302/64
f 85/301/65 44/260/65 64/259/65 107/302/65
f 127/6/66 149/5/66 168/303/66 129/304/66
f 129/304/67 168/303/67 167/305/67 130/306/67
f 130/306/68 167/305/68 166/307/68 131/308/68
f 131/308/69 166/307/69 165/309/69 132/310/69
f 132/310/70 165/309/70 164/311/70 133/312/70
f 133/312/71 164/311/71 163/313/71 134/314/71
f 134/314/72 163/313/72 162/315/72 135/316/72
f 135/316/73 162/315/73 161/317/73 136/318/73
f 136/318/74 161/317/74 160/319/74 137/320/74
f 137/320/75 160/319/75 159/321/75 138/322/75
f 138/323/76 159/324/76 158/325/76 139/326/76
f 139/326/77 158/325/77 157/327/77 140/328/77
f 140/328/78 157/327/78 156/329/78 141/330/78
f 141/330/79 156/329/79 155/331/79 142/332/79
f 142/332/80 155/331/80 154/333/80 143/334/80
f 143/334/81 154/333/81 153/335/81 144/336/81
f 144/336/82 153/335/82 152/337/82 145/338/82
f 145/338/83 152/337/83 151/339/83 146/340/83
f 146/340/84 151/339/84 150/341/84 147/342/84
f 147/342/85 150/341/85 148/343/85 128/344/85
f 148/343/86 23/134/86 1/133/86 128/344/86
