# Blender 3.6.1
# www.blender.org
mtllib octa.mtl
o Cylinder
v 0.191342 0.461940 -0.010000
v 0.191342 0.461940 0.010000
v 0.461940 0.191342 -0.010000
v 0.461940 0.191342 0.010000
v 0.461940 -0.191342 -0.010000
v 0.461940 -0.191342 0.010000
v 0.191342 -0.461940 -0.010000
v 0.191342 -0.461940 0.010000
v -0.191342 -0.461940 -0.010000
v -0.191342 -0.461940 0.010000
v -0.461940 -0.191342 -0.010000
v -0.461940 -0.191342 0.010000
v -0.461940 0.191342 -0.010000
v -0.461940 0.191342 0.010000
v -0.191342 0.461940 -0.010000
v -0.191342 0.461940 0.010000
vn 0.7071 0.7071 -0.0000
vn 1.0000 -0.0000 -0.0000
vn 0.7071 -0.7071 -0.0000
vn -0.0000 -1.0000 -0.0000
vn -0.7071 -0.7071 -0.0000
vn -1.0000 -0.0000 -0.0000
vn -0.0000 -0.0000 1.0000
vn -0.7071 0.7071 -0.0000
vn -0.0000 1.0000 -0.0000
vn -0.0000 -0.0000 -1.0000
vt 0.001613 0.998419
vt 0.001613 0.994544
vt 0.002581 0.994544
vt 0.002581 0.998419
vt 0.003550 0.994544
vt 0.003550 0.998419
vt 0.004519 0.994544
vt 0.004519 0.998419
vt 0.005487 0.994544
vt 0.005487 0.998419
vt 0.006456 0.994544
vt 0.006456 0.998419
vt 0.007425 0.994544
vt 0.007425 0.998419
vt 0.998895 0.706649
vt 0.706649 0.998895
vt 0.293351 0.998895
vt 0.001105 0.706649
vt 0.001105 0.293351
vt 0.293351 0.001105
vt 0.706649 0.001105
vt 0.998895 0.293351
vt 0.008394 0.994544
vt 0.008394 0.998419
vt 0.009362 0.994544
vt 0.009362 0.998419
vt 0.706738 0.998895
vt 0.999107 0.706350
vt 0.999406 0.292927
vt 0.707459 0.000806
vt 0.294285 0.001105
vt 0.001915 0.293650
vt 0.001616 0.707073
vt 0.293563 0.999194
s 0
f 1/1/1 2/2/1 4/3/1 3/4/1
f 3/4/2 4/3/2 6/5/2 5/6/2
f 5/6/3 6/5/3 8/7/3 7/8/3
f 7/8/4 8/7/4 10/9/4 9/10/4
f 9/10/5 10/9/5 12/11/5 11/12/5
f 11/12/6 12/11/6 14/13/6 13/14/6
f 4/15/7 2/16/7 16/17/7 14/18/7 12/19/7 10/20/7 8/21/7 6/22/7
f 13/14/8 14/13/8 16/23/8 15/24/8
f 15/24/9 16/23/9 2/25/9 1/26/9
f 1/27/10 3/28/10 5/29/10 7/30/10 9/31/10 11/32/10 13/33/10 15/34/10
