# Blender 3.6.1
# www.blender.org
mtllib triangle.mtl
o Cylinder
v 0.039812 -0.618852 -0.010000
v -0.039812 -0.618852 -0.010000
v 0.037234 -0.623627 -0.010000
v 0.034509 -0.628073 -0.010000
v 0.031647 -0.632173 -0.010000
v 0.028661 -0.635911 -0.010000
v 0.025561 -0.639271 -0.010000
v 0.022361 -0.642241 -0.010000
v 0.019072 -0.644809 -0.010000
v 0.015708 -0.646964 -0.010000
v 0.012282 -0.648699 -0.010000
v 0.008808 -0.650006 -0.010000
v 0.005299 -0.650880 -0.010000
v 0.001769 -0.651318 -0.010000
v -0.001769 -0.651318 -0.010000
v -0.005299 -0.650880 -0.010000
v -0.008808 -0.650006 -0.010000
v -0.012282 -0.648699 -0.010000
v -0.015708 -0.646964 -0.010000
v -0.019072 -0.644809 -0.010000
v -0.022361 -0.642241 -0.010000
v -0.025561 -0.639271 -0.010000
v -0.028661 -0.635911 -0.010000
v -0.031647 -0.632173 -0.010000
v -0.034509 -0.628073 -0.010000
v -0.037234 -0.623627 -0.010000
v -0.039812 -0.618852 0.010000
v 0.039812 -0.618852 0.010000
v -0.037234 -0.623627 0.010000
v -0.034509 -0.628073 0.010000
v -0.031647 -0.632173 0.010000
v -0.028661 -0.635911 0.010000
v -0.025561 -0.639271 0.010000
v -0.022361 -0.642241 0.010000
v -0.019072 -0.644809 0.010000
v -0.015708 -0.646964 0.010000
v -0.012282 -0.648699 0.010000
v -0.008808 -0.650006 0.010000
v -0.005299 -0.650880 0.010000
v -0.001769 -0.651318 0.010000
v 0.001769 -0.651318 0.010000
v 0.005299 -0.650880 0.010000
v 0.008808 -0.650006 0.010000
v 0.012282 -0.648699 0.010000
v 0.015708 -0.646964 0.010000
v 0.019072 -0.644809 0.010000
v 0.022361 -0.642241 0.010000
v 0.025561 -0.639271 0.010000
v 0.028661 -0.635911 0.010000
v 0.031647 -0.632173 0.010000
v 0.034509 -0.628073 0.010000
v 0.037234 -0.623627 0.010000
v -0.490627 0.270170 -0.010000
v -0.450814 0.348682 -0.010000
v -0.492970 0.275100 -0.010000
v -0.494989 0.280011 -0.010000
v -0.496677 0.284882 -0.010000
v -0.498026 0.289695 -0.010000
v -0.499032 0.294432 -0.010000
v -0.499691 0.299072 -0.010000
v -0.500000 0.303599 -0.010000
v -0.499958 0.307994 -0.010000
v -0.499564 0.312239 -0.010000
v -0.498821 0.316318 -0.010000
v -0.497731 0.320216 -0.010000
v -0.496299 0.323915 -0.010000
v -0.494531 0.327403 -0.010000
v -0.492433 0.330665 -0.010000
v -0.490013 0.333688 -0.010000
v -0.487282 0.336460 -0.010000
v -0.484249 0.338971 -0.010000
v -0.480928 0.341210 -0.010000
v -0.477331 0.343169 -0.010000
v -0.473471 0.344839 -0.010000
v -0.469366 0.346215 -0.010000
v -0.465029 0.347291 -0.010000
v -0.460480 0.348063 -0.010000
v -0.455736 0.348527 -0.010000
v -0.450814 0.348682 0.010000
v -0.490627 0.270170 0.010000
v -0.455736 0.348527 0.010000
v -0.460480 0.348063 0.010000
v -0.465029 0.347291 0.010000
v -0.469366 0.346215 0.010000
v -0.473471 0.344839 0.010000
v -0.477331 0.343169 0.010000
v -0.480928 0.341210 0.010000
v -0.484249 0.338971 0.010000
v -0.487282 0.336460 0.010000
v -0.490013 0.333688 0.010000
v -0.492433 0.330665 0.010000
v -0.494531 0.327403 0.010000
v -0.496299 0.323915 0.010000
v -0.497731 0.320216 0.010000
v -0.498821 0.316318 0.010000
v -0.499564 0.312239 0.010000
v -0.499958 0.307994 0.010000
v -0.500000 0.303599 0.010000
v -0.499691 0.299072 0.010000
v -0.499032 0.294432 0.010000
v -0.498026 0.289695 0.010000
v -0.496677 0.284882 0.010000
v -0.494989 0.280011 0.010000
v -0.492970 0.275100 0.010000
v 0.450814 0.348682 -0.010000
v 0.490627 0.270170 -0.010000
v 0.455736 0.348527 -0.010000
v 0.460480 0.348063 -0.010000
v 0.465029 0.347291 -0.010000
v 0.469366 0.346215 -0.010000
v 0.473471 0.344839 -0.010000
v 0.477331 0.343169 -0.010000
v 0.480928 0.341210 -0.010000
v 0.484249 0.338971 -0.010000
v 0.487282 0.336460 -0.010000
v 0.490013 0.333688 -0.010000
v 0.492433 0.330665 -0.010000
v 0.494531 0.327403 -0.010000
v 0.496299 0.323915 -0.010000
v 0.497731 0.320216 -0.010000
v 0.498821 0.316318 -0.010000
v 0.499564 0.312239 -0.010000
v 0.499958 0.307994 -0.010000
v 0.500000 0.303599 -0.010000
v 0.499691 0.299072 -0.010000
v 0.499032 0.294432 -0.010000
v 0.498026 0.289695 -0.010000
v 0.496677 0.284882 -0.010000
v 0.494989 0.280011 -0.010000
v 0.492970 0.275100 -0.010000
v 0.490627 0.270170 0.010000
v 0.450814 0.348682 0.010000
v 0.492970 0.275100 0.010000
v 0.494989 0.280011 0.010000
v 0.496677 0.284882 0.010000
v 0.498026 0.289695 0.010000
v 0.499032 0.294432 0.010000
v 0.499691 0.299072 0.010000
v 0.500000 0.303599 0.010000
v 0.499958 0.307994 0.010000
v 0.499564 0.312239 0.010000
v 0.498821 0.316318 0.010000
v 0.497731 0.320216 0.010000
v 0.496299 0.323915 0.010000
v 0.494531 0.327403 0.010000
v 0.492433 0.330665 0.010000
v 0.490013 0.333688 0.010000
v 0.487282 0.336460 0.010000
v 0.484249 0.338971 0.010000
v 0.480928 0.341210 0.010000
v 0.477331 0.343169 0.010000
v 0.473471 0.344839 0.010000
v 0.469366 0.346215 0.010000
v 0.465029 0.347291 0.010000
v 0.460480 0.348063 0.010000
v 0.455736 0.348527 0.010000
vn -0.0000 -0.0000 -1.0000
vn -0.0000 -0.0000 1.0000
vn 0.8919 -0.4523 -0.0000
vn 0.8799 -0.4751 -0.0000
vn 0.8526 -0.5226 -0.0000
vn 0.8200 -0.5723 -0.0000
vn 0.7812 -0.6242 -0.0000
vn 0.7351 -0.6780 -0.0000
vn 0.6802 -0.7330 -0.0000
vn 0.6154 -0.7882 -0.0000
vn 0.5395 -0.8420 -0.0000
vn 0.4517 -0.8922 -0.0000
vn 0.3521 -0.9360 -0.0000
vn 0.2417 -0.9703 -0.0000
vn 0.1231 -0.9924 -0.0000
vn -0.0000 -1.0000 -0.0000
vn -0.1231 -0.9924 -0.0000
vn -0.2417 -0.9703 -0.0000
vn -0.3521 -0.9360 -0.0000
vn -0.4517 -0.8922 -0.0000
vn -0.5395 -0.8420 -0.0000
vn -0.6154 -0.7882 -0.0000
vn -0.6802 -0.7330 -0.0000
vn -0.7351 -0.6780 -0.0000
vn -0.7812 -0.6242 -0.0000
vn -0.8200 -0.5723 -0.0000
vn -0.8526 -0.5226 -0.0000
vn -0.8799 -0.4751 -0.0000
vn -0.0315 0.9995 -0.0000
vn -0.0974 0.9952 -0.0000
vn -0.1672 0.9859 -0.0000
vn -0.2408 0.9706 -0.0000
vn -0.3178 0.9482 -0.0000
vn -0.3973 0.9177 -0.0000
vn -0.4782 0.8782 -0.0000
vn -0.5590 0.8292 -0.0000
vn -0.6377 0.7703 -0.0000
vn -0.7123 0.7018 -0.0000
vn -0.7807 0.6249 -0.0000
vn -0.8410 0.5410 -0.0000
vn -0.8919 0.4523 -0.0000
vn -0.9326 0.3609 -0.0000
vn -0.9631 0.2693 -0.0000
vn -0.9838 0.1792 -0.0000
vn -0.9957 0.0923 -0.0000
vn -1.0000 0.0097 -0.0000
vn -0.9977 -0.0681 -0.0000
vn -0.9901 -0.1406 -0.0000
vn -0.9782 -0.2078 -0.0000
vn -0.9629 -0.2700 -0.0000
vn -0.9449 -0.3274 -0.0000
vn -0.9249 -0.3803 -0.0000
vn -0.9032 -0.4292 -0.0000
vn -0.8919 -0.4523 -0.0000
vn 0.9032 -0.4292 -0.0000
vn 0.9249 -0.3803 -0.0000
vn 0.9449 -0.3274 -0.0000
vn 0.9629 -0.2700 -0.0000
vn 0.9782 -0.2078 -0.0000
vn 0.9901 -0.1406 -0.0000
vn 0.9977 -0.0681 -0.0000
vn 1.0000 0.0097 -0.0000
vn 0.9957 0.0923 -0.0000
vn 0.9838 0.1792 -0.0000
vn 0.9631 0.2693 -0.0000
vn 0.9326 0.3609 -0.0000
vn 0.8919 0.4523 -0.0000
vn 0.8410 0.5410 -0.0000
vn 0.7807 0.6249 -0.0000
vn 0.7123 0.7018 -0.0000
vn 0.6377 0.7703 -0.0000
vn 0.5590 0.8292 -0.0000
vn 0.4782 0.8782 -0.0000
vn 0.3973 0.9177 -0.0000
vn 0.3178 0.9482 -0.0000
vn 0.2408 0.9706 -0.0000
vn 0.1672 0.9859 -0.0000
vn 0.0974 0.9952 -0.0000
vn 0.0315 0.9995 -0.0000
vn -0.0000 1.0000 -0.0000
vt 0.539530 0.049011
vt 0.537080 0.044414
vt 0.534489 0.040133
vt 0.531767 0.036185
vt 0.528924 0.032586
vt 0.525972 0.029350
vt 0.522922 0.026490
vt 0.519787 0.024017
vt 0.516579 0.021941
vt 0.513311 0.020271
vt 0.509995 0.019011
vt 0.506645 0.018169
vt 0.503273 0.017746
vt 0.499893 0.017745
vt 0.496519 0.018166
vt 0.493164 0.019007
vt 0.489840 0.020264
vt 0.486562 0.021933
vt 0.483342 0.024007
vt 0.480192 0.026478
vt 0.477126 0.029337
vt 0.474155 0.032571
vt 0.471291 0.036168
vt 0.468545 0.040115
vt 0.465929 0.044394
vt 0.463451 0.048990
vt 0.030188 0.904744
vt 0.027935 0.909490
vt 0.025992 0.914216
vt 0.024366 0.918906
vt 0.023063 0.923539
vt 0.022088 0.928099
vt 0.021445 0.932566
vt 0.021137 0.936924
vt 0.021165 0.941155
vt 0.021529 0.945242
vt 0.022227 0.949169
vt 0.023258 0.952922
vt 0.024615 0.956484
vt 0.026295 0.959842
vt 0.028291 0.962982
vt 0.030594 0.965893
vt 0.033196 0.968563
vt 0.036086 0.970981
vt 0.039253 0.973137
vt 0.042685 0.975024
vt 0.046367 0.976633
vt 0.050286 0.977959
vt 0.054426 0.978996
vt 0.058771 0.979740
vt 0.063303 0.980188
vt 0.068004 0.980339
vt 0.929480 0.980576
vt 0.934182 0.980428
vt 0.938717 0.979983
vt 0.943066 0.979241
vt 0.947212 0.978207
vt 0.951139 0.976883
vt 0.954830 0.975275
vt 0.958274 0.973391
vt 0.961454 0.971236
vt 0.964358 0.968820
vt 0.966976 0.966151
vt 0.969296 0.963242
vt 0.971310 0.960102
vt 0.973010 0.956745
vt 0.974389 0.953184
vt 0.975440 0.949432
vt 0.976162 0.945505
vt 0.976550 0.941418
vt 0.976603 0.937187
vt 0.976321 0.932829
vt 0.975705 0.928362
vt 0.974757 0.923802
vt 0.973481 0.919167
vt 0.971882 0.914477
vt 0.969967 0.909749
vt 0.967743 0.905003
vt 0.072192 0.979240
vt 0.067510 0.979084
vt 0.062995 0.978631
vt 0.058666 0.977884
vt 0.054540 0.976846
vt 0.050632 0.975520
vt 0.046959 0.973912
vt 0.043535 0.972028
vt 0.040373 0.969875
vt 0.037486 0.967463
vt 0.034886 0.964800
vt 0.032582 0.961897
vt 0.030583 0.958765
vt 0.028898 0.955418
vt 0.027533 0.951867
vt 0.026494 0.948128
vt 0.025784 0.944215
vt 0.025407 0.940142
vt 0.025364 0.935927
vt 0.025654 0.931587
vt 0.026278 0.927137
vt 0.027232 0.922596
vt 0.028513 0.917981
vt 0.030116 0.913312
vt 0.032034 0.908606
vt 0.034260 0.903881
vt 0.462595 0.051920
vt 0.465045 0.047345
vt 0.467635 0.043085
vt 0.470355 0.039157
vt 0.473194 0.035577
vt 0.476140 0.032359
vt 0.479183 0.029515
vt 0.482311 0.027058
vt 0.485510 0.024995
vt 0.488768 0.023337
vt 0.492073 0.022089
vt 0.495411 0.021255
vt 0.498770 0.020841
vt 0.502135 0.020846
vt 0.505494 0.021271
vt 0.508834 0.022115
vt 0.512140 0.023374
vt 0.515402 0.025043
vt 0.518603 0.027115
vt 0.521734 0.029583
vt 0.524781 0.032436
vt 0.527732 0.035663
vt 0.530576 0.039252
vt 0.533302 0.043189
vt 0.535898 0.047457
vt 0.538354 0.052041
vt 0.967878 0.905362
vt 0.970110 0.910093
vt 0.972035 0.914806
vt 0.973644 0.919481
vt 0.974931 0.924099
vt 0.975892 0.928643
vt 0.976522 0.933095
vt 0.976819 0.937437
vt 0.976781 0.941651
vt 0.976409 0.945722
vt 0.975705 0.949634
vt 0.974671 0.953369
vt 0.973311 0.956916
vt 0.971630 0.960258
vt 0.969637 0.963383
vt 0.967337 0.966279
vt 0.964740 0.968934
vt 0.961856 0.971337
vt 0.958697 0.973479
vt 0.955276 0.975353
vt 0.951605 0.976949
vt 0.947700 0.978262
vt 0.943575 0.979288
vt 0.939247 0.980021
vt 0.934733 0.980459
vt 0.930051 0.980600
vt 0.002339 0.995430
vt 0.002339 0.996757
vt 0.002909 0.996757
vt 0.002909 0.995430
vt 0.002912 0.996757
vt 0.002912 0.995430
vt 0.002915 0.996757
vt 0.002915 0.995430
vt 0.002918 0.996757
vt 0.002918 0.995430
vt 0.002921 0.996757
vt 0.002921 0.995430
vt 0.002923 0.996757
vt 0.002923 0.995430
vt 0.002926 0.996757
vt 0.002926 0.995430
vt 0.002928 0.996757
vt 0.002928 0.995430
vt 0.002930 0.996757
vt 0.002930 0.995430
vt 0.002932 0.996757
vt 0.002932 0.995430
vt 0.002934 0.996757
vt 0.002934 0.995430
vt 0.002935 0.996757
vt 0.002935 0.995430
vt 0.002937 0.996757
vt 0.002937 0.995430
vt 0.000969 0.996757
vt 0.000969 0.995430
vt 0.000971 0.996757
vt 0.000971 0.995430
vt 0.000972 0.996757
vt 0.000972 0.995430
vt 0.000974 0.996757
vt 0.000974 0.995430
vt 0.000976 0.996757
vt 0.000976 0.995430
vt 0.000978 0.996757
vt 0.000978 0.995430
vt 0.000980 0.996757
vt 0.000980 0.995430
vt 0.000983 0.996757
vt 0.000983 0.995430
vt 0.000985 0.996757
vt 0.000985 0.995430
vt 0.000988 0.996757
vt 0.000988 0.995430
vt 0.000991 0.996757
vt 0.000991 0.995430
vt 0.000994 0.996757
vt 0.000994 0.995430
vt 0.000997 0.996757
vt 0.000997 0.995430
vt 0.001668 0.996757
vt 0.001668 0.995430
vt 0.001665 0.995430
vt 0.001665 0.996757
vt 0.001662 0.995430
vt 0.001662 0.996757
vt 0.001659 0.995430
vt 0.001659 0.996757
vt 0.001656 0.995430
vt 0.001656 0.996757
vt 0.001654 0.995430
vt 0.001654 0.996757
vt 0.001651 0.995430
vt 0.001651 0.996757
vt 0.001649 0.995430
vt 0.001649 0.996757
vt 0.001647 0.995430
vt 0.001647 0.996757
vt 0.001645 0.995430
vt 0.001645 0.996757
vt 0.001643 0.995430
vt 0.001643 0.996757
vt 0.001642 0.995430
vt 0.001642 0.996757
vt 0.001640 0.995430
vt 0.001640 0.996757
vt 0.001595 0.995430
vt 0.001595 0.996757
vt 0.001594 0.995430
vt 0.001594 0.996757
vt 0.001592 0.995430
vt 0.001592 0.996757
vt 0.001590 0.995430
vt 0.001590 0.996757
vt 0.001588 0.995430
vt 0.001588 0.996757
vt 0.001586 0.995430
vt 0.001586 0.996757
vt 0.001584 0.995430
vt 0.001584 0.996757
vt 0.001582 0.995430
vt 0.001582 0.996757
vt 0.001579 0.995430
vt 0.001579 0.996757
vt 0.001576 0.995430
vt 0.001576 0.996757
vt 0.001573 0.995430
vt 0.001573 0.996757
vt 0.001570 0.995430
vt 0.001570 0.996757
vt 0.001567 0.995430
vt 0.001567 0.996757
vt 0.002336 0.995430
vt 0.002336 0.996757
vt 0.002333 0.995430
vt 0.002333 0.996757
vt 0.002330 0.995430
vt 0.002330 0.996757
vt 0.002327 0.995430
vt 0.002327 0.996757
vt 0.002325 0.995430
vt 0.002325 0.996757
vt 0.002322 0.995430
vt 0.002322 0.996757
vt 0.002320 0.995430
vt 0.002320 0.996757
vt 0.002318 0.995430
vt 0.002318 0.996757
vt 0.002316 0.995430
vt 0.002316 0.996757
vt 0.002314 0.995430
vt 0.002314 0.996757
vt 0.002313 0.995430
vt 0.002313 0.996757
vt 0.002311 0.995430
vt 0.002311 0.996757
vt 0.002266 0.995430
vt 0.002266 0.996757
vt 0.002265 0.995430
vt 0.002265 0.996757
vt 0.002263 0.995430
vt 0.002263 0.996757
vt 0.002261 0.995430
vt 0.002261 0.996757
vt 0.002259 0.995430
vt 0.002259 0.996757
vt 0.002257 0.995430
vt 0.002257 0.996757
vt 0.002255 0.995430
vt 0.002255 0.996757
vt 0.002253 0.995430
vt 0.002253 0.996757
vt 0.002250 0.995430
vt 0.002250 0.996757
vt 0.002247 0.995430
vt 0.002247 0.996757
vt 0.002244 0.995430
vt 0.002244 0.996757
vt 0.002241 0.995430
vt 0.002241 0.996757
vt 0.002238 0.995430
vt 0.002238 0.996757
s 0
f 1/1/1 3/2/1 4/3/1 5/4/1 6/5/1 7/6/1 8/7/1 9/8/1 10/9/1 11/10/1 12/11/1 13/12/1 14/13/1 15/14/1 16/15/1 17/16/1 18/17/1 19/18/1 20/19/1 21/20/1 22/21/1 23/22/1 24/23/1 25/24/1 26/25/1 2/26/1 53/27/1 55/28/1 56/29/1 57/30/1 58/31/1 59/32/1 60/33/1 61/34/1 62/35/1 63/36/1 64/37/1 65/38/1 66/39/1 67/40/1 68/41/1 69/42/1 70/43/1 71/44/1 72/45/1 73/46/1 74/47/1 75/48/1 76/49/1 77/50/1 78/51/1 54/52/1 105/53/1 107/54/1 108/55/1 109/56/1 110/57/1 111/58/1 112/59/1 113/60/1 114/61/1 115/62/1 116/63/1 117/64/1 118/65/1 119/66/1 120/67/1 121/68/1 122/69/1 123/70/1 124/71/1 125/72/1 126/73/1 127/74/1 128/75/1 129/76/1 130/77/1 106/78/1
f 79/79/2 81/80/2 82/81/2 83/82/2 84/83/2 85/84/2 86/85/2 87/86/2 88/87/2 89/88/2 90/89/2 91/90/2 92/91/2 93/92/2 94/93/2 95/94/2 96/95/2 97/96/2 98/97/2 99/98/2 100/99/2 101/100/2 102/101/2 103/102/2 104/103/2 80/104/2 27/105/2 29/106/2 30/107/2 31/108/2 32/109/2 33/110/2 34/111/2 35/112/2 36/113/2 37/114/2 38/115/2 39/116/2 40/117/2 41/118/2 42/119/2 43/120/2 44/121/2 45/122/2 46/123/2 47/124/2 48/125/2 49/126/2 50/127/2 51/128/2 52/129/2 28/130/2 131/131/2 133/132/2 134/133/2 135/134/2 136/135/2 137/136/2 138/137/2 139/138/2 140/139/2 141/140/2 142/141/2 143/142/2 144/143/2 145/144/2 146/145/2 147/146/2 148/147/2 149/148/2 150/149/2 151/150/2 152/151/2 153/152/2 154/153/2 155/154/2 156/155/2 132/156/2
f 106/157/3 131/158/3 28/159/3 1/160/3
f 1/160/4 28/159/4 52/161/4 3/162/4
f 3/162/5 52/161/5 51/163/5 4/164/5
f 4/164/6 51/163/6 50/165/6 5/166/6
f 5/166/7 50/165/7 49/167/7 6/168/7
f 6/168/8 49/167/8 48/169/8 7/170/8
f 7/170/9 48/169/9 47/171/9 8/172/9
f 8/172/10 47/171/10 46/173/10 9/174/10
f 9/174/11 46/173/11 45/175/11 10/176/11
f 10/176/12 45/175/12 44/177/12 11/178/12
f 11/178/13 44/177/13 43/179/13 12/180/13
f 12/180/14 43/179/14 42/181/14 13/182/14
f 13/182/15 42/181/15 41/183/15 14/184/15
f 14/184/16 41/183/16 40/185/16 15/186/16
f 15/186/17 40/185/17 39/187/17 16/188/17
f 16/188/18 39/187/18 38/189/18 17/190/18
f 17/190/19 38/189/19 37/191/19 18/192/19
f 18/192/20 37/191/20 36/193/20 19/194/20
f 19/194/21 36/193/21 35/195/21 20/196/21
f 20/196/22 35/195/22 34/197/22 21/198/22
f 21/198/23 34/197/23 33/199/23 22/200/23
f 22/200/24 33/199/24 32/201/24 23/202/24
f 23/202/25 32/201/25 31/203/25 24/204/25
f 24/204/26 31/203/26 30/205/26 25/206/26
f 25/206/27 30/205/27 29/207/27 26/208/27
f 26/208/28 29/207/28 27/209/28 2/210/28
f 79/211/29 54/212/29 78/213/29 81/214/29
f 81/214/30 78/213/30 77/215/30 82/216/30
f 82/216/31 77/215/31 76/217/31 83/218/31
f 83/218/32 76/217/32 75/219/32 84/220/32
f 84/220/33 75/219/33 74/221/33 85/222/33
f 85/222/34 74/221/34 73/223/34 86/224/34
f 86/224/35 73/223/35 72/225/35 87/226/35
f 87/226/36 72/225/36 71/227/36 88/228/36
f 88/228/37 71/227/37 70/229/37 89/230/37
f 89/230/38 70/229/38 69/231/38 90/232/38
f 90/232/39 69/231/39 68/233/39 91/234/39
f 91/234/40 68/233/40 67/235/40 92/236/40
f 92/236/41 67/235/41 66/237/41 93/238/41
f 93/238/42 66/237/42 65/239/42 94/240/42
f 94/240/43 65/239/43 64/241/43 95/242/43
f 95/242/44 64/241/44 63/243/44 96/244/44
f 96/244/45 63/243/45 62/245/45 97/246/45
f 97/246/46 62/245/46 61/247/46 98/248/46
f 98/248/47 61/247/47 60/249/47 99/250/47
f 99/250/48 60/249/48 59/251/48 100/252/48
f 100/252/49 59/251/49 58/253/49 101/254/49
f 101/254/50 58/253/50 57/255/50 102/256/50
f 102/256/51 57/255/51 56/257/51 103/258/51
f 103/258/52 56/257/52 55/259/52 104/260/52
f 104/260/53 55/259/53 53/261/53 80/262/53
f 2/210/54 27/209/54 80/262/54 53/261/54
f 131/158/55 106/157/55 130/263/55 133/264/55
f 133/264/56 130/263/56 129/265/56 134/266/56
f 134/266/57 129/265/57 128/267/57 135/268/57
f 135/268/58 128/267/58 127/269/58 136/270/58
f 136/270/59 127/269/59 126/271/59 137/272/59
f 137/272/60 126/271/60 125/273/60 138/274/60
f 138/274/61 125/273/61 124/275/61 139/276/61
f 139/276/62 124/275/62 123/277/62 140/278/62
f 140/278/63 123/277/63 122/279/63 141/280/63
f 141/280/64 122/279/64 121/281/64 142/282/64
f 142/282/65 121/281/65 120/283/65 143/284/65
f 143/284/66 120/283/66 119/285/66 144/286/66
f 144/286/67 119/285/67 118/287/67 145/288/67
f 145/288/68 118/287/68 117/289/68 146/290/68
f 146/290/69 117/289/69 116/291/69 147/292/69
f 147/292/70 116/291/70 115/293/70 148/294/70
f 148/294/71 115/293/71 114/295/71 149/296/71
f 149/296/72 114/295/72 113/297/72 150/298/72
f 150/298/73 113/297/73 112/299/73 151/300/73
f 151/300/74 112/299/74 111/301/74 152/302/74
f 152/302/75 111/301/75 110/303/75 153/304/75
f 153/304/76 110/303/76 109/305/76 154/306/76
f 154/306/77 109/305/77 108/307/77 155/308/77
f 155/308/78 108/307/78 107/309/78 156/310/78
f 156/310/79 107/309/79 105/311/79 132/312/79
f 54/212/80 79/211/80 132/312/80 105/311/80
